<svg xmlns="http://www.w3.org/2000/svg" id="Layer_1" x="0" y="0" version="1.1" viewBox="0 0 128 128" xml:space="preserve">
  <polygon fill="#fff" points="29,64 64,4 99,64 64,124"></polygon>
  <path fill="#444b54" d="M101.59,62.49l-35-60C66.05,1.57,65.07,1,64,1s-2.05,0.57-2.59,1.49l-35,60c-0.83,1.43-0.35,3.27,1.08,4.1 c0.01,0.01,0.02,0.01,0.04,0.02c0,0,0.01,0.01,0.01,0.01l35,19.56c0.46,0.25,0.96,0.38,1.46,0.38s1.01-0.13,1.46-0.38l25.41-14.2 L64,118.05L45.31,86.01c-0.83-1.43-2.67-1.92-4.1-1.08c-1.43,0.83-1.91,2.67-1.08,4.1l21.28,36.48c0.54,0.92,1.52,1.49,2.59,1.49 s2.05-0.57,2.59-1.49l35-60c0.01-0.02,0.01-0.04,0.02-0.05C102.11,64.56,102.15,63.44,101.59,62.49z M64,9.95l30.87,52.92L67,78.45 V34c0-1.66-1.34-3-3-3s-3,1.34-3,3v44.45L33.13,62.87L64,9.95z"></path>
  <g>
    <path fill="#71c2ff" d="M9.22,26.89l12,7.21c1.42,0.85,3.26,0.39,4.12-1.03c0.85-1.42,0.39-3.26-1.03-4.12l-12-7.21 c-1.42-0.85-3.26-0.39-4.12,1.03C7.34,24.19,7.8,26.03,9.22,26.89z"></path>
    <path fill="#71c2ff" d="M1,53c0,1.66,1.34,3,3,3l12,0c1.09,0,2.05-0.58,2.57-1.46C18.84,54.09,19,53.56,19,53c0-1.66-1.34-3-3-3 L4,50C2.34,50,1,51.34,1,53z"></path>
    <path fill="#71c2ff" d="M39.96,18.12c0.5-0.26,0.89-0.65,1.16-1.1c0.52-0.87,0.59-1.99,0.08-2.96l-5.63-10.6 c-0.78-1.46-2.59-2.02-4.06-1.24c-1.46,0.78-2.02,2.59-1.24,4.06l5.63,10.6C36.68,18.34,38.49,18.9,39.96,18.12z"></path>
    <g>
      <path fill="#71c2ff" d="M118.78,26.99l-11.91,7.15c-1.13,0.68-2.62,0.65-3.6-0.23c-1.6-1.44-1.27-3.84,0.41-4.85l11.91-7.15 c1.13-0.68,2.62-0.65,3.6,0.23C120.8,23.57,120.47,25.98,118.78,26.99z"></path>
      <path fill="#71c2ff" d="M126.85,53.95c-0.39,1.26-1.65,2.05-2.96,2.05L112,56c-1.09,0-2.05-0.58-2.57-1.46 c-0.31-0.51-0.47-1.12-0.42-1.76c0.11-1.6,1.57-2.78,3.18-2.78L124,50C125.96,50,127.49,51.89,126.85,53.95z"></path>
      <path fill="#71c2ff" d="M88.24,18.32c-0.59-0.26-1.05-0.69-1.36-1.2c-0.52-0.87-0.59-1.99-0.08-2.96l5.54-10.42 c0.77-1.45,2.55-2.18,4.03-1.47c1.55,0.74,2.16,2.62,1.36,4.12l-5.55,10.43C91.43,18.24,89.71,18.97,88.24,18.32z"></path>
    </g>
  </g>
</svg>