<?xml version="1.0" standalone="no"?>
<!DOCTYPE svg PUBLIC "-//W3C//DTD SVG 20010904//EN"
 "http://www.w3.org/TR/2001/REC-SVG-20010904/DTD/svg10.dtd">
<svg version="1.0" xmlns="http://www.w3.org/2000/svg"
 width="600.000000pt" height="526.000000pt" viewBox="0 0 600.000000 526.000000"
 preserveAspectRatio="xMidYMid meet">

<g transform="translate(0.000000,526.000000) scale(0.100000,-0.100000)"
fill="#000000" stroke="none">
<path d="M3195 5238 c-690 -78 -1276 -460 -1675 -1092 -58 -92 -88 -129 -137
-167 -114 -91 -209 -211 -254 -320 -31 -74 -32 -211 -2 -285 l20 -51 -51 -202
-51 -202 -40 -12 c-90 -27 -319 -199 -468 -352 -216 -220 -359 -426 -479 -687
-61 -134 -68 -158 -42 -158 9 0 82 -25 162 -56 81 -31 183 -68 227 -84 44 -15
205 -75 357 -133 152 -58 290 -108 307 -112 36 -8 40 -14 70 -88 13 -31 47
-103 77 -159 230 -428 611 -729 1149 -907 337 -111 679 -161 1103 -161 544 0
1001 103 1387 313 197 107 319 198 479 355 453 446 673 1088 653 1905 -6 253
-24 398 -77 628 -116 510 -368 968 -731 1329 -390 389 -868 624 -1412 695
-130 17 -438 19 -572 3z m409 -299 c50 -5 123 -17 162 -26 39 -8 88 -16 108
-18 97 -9 363 -92 449 -141 15 -8 27 -13 27 -10 0 5 184 -86 245 -122 40 -22
128 -86 185 -133 25 -20 50 -37 55 -38 36 -5 329 -302 380 -385 11 -18 28 -41
38 -51 83 -82 306 -516 331 -645 4 -19 17 -63 28 -98 11 -35 18 -65 15 -68 -2
-3 4 -37 15 -77 23 -86 48 -348 48 -505 0 -137 -16 -294 -35 -343 -8 -20 -16
-64 -20 -97 -8 -86 -46 -211 -99 -324 -25 -53 -46 -104 -46 -113 0 -26 -74
-157 -121 -213 -5 -7 -17 -29 -26 -50 -8 -20 -45 -77 -82 -126 -36 -49 -66
-92 -66 -96 0 -7 -57 -70 -160 -179 -75 -78 -315 -288 -315 -275 0 3 -35 -19
-77 -48 -90 -63 -113 -75 -283 -157 -164 -78 -422 -154 -635 -186 -135 -21
-412 -24 -545 -6 -108 14 -304 56 -365 78 -22 8 -73 23 -114 34 -90 24 -377
158 -426 198 -26 22 -133 91 -141 91 -3 0 -11 6 -19 12 -7 7 -64 54 -126 103
-114 90 -209 181 -277 265 -20 25 -43 49 -50 53 -7 5 -35 38 -61 74 l-48 65
65 61 c67 65 135 154 170 223 50 98 35 204 -43 318 -106 156 -195 383 -195
502 -1 150 -41 282 -110 366 -39 47 -122 88 -194 95 -47 5 -56 9 -51 22 4 9
10 39 15 67 5 28 14 71 20 95 14 50 14 50 25 103 7 34 41 135 91 270 9 22 24
59 35 82 10 24 19 46 19 49 0 39 174 341 274 475 92 124 131 166 246 264 52
44 97 84 98 89 2 4 8 7 14 7 8 0 75 46 88 61 11 13 99 69 108 69 6 0 33 16 62
35 75 50 300 158 405 193 278 92 664 140 909 111z m-2339 -2123 c58 -26 113
-80 149 -146 25 -46 56 -163 119 -445 50 -221 52 -248 23 -313 -12 -29 -29
-61 -37 -70 -8 -10 -34 -41 -57 -70 l-44 -52 -183 0 c-182 0 -183 0 -198 24
-41 62 -342 324 -595 519 l-63 48 53 76 c104 151 270 298 441 391 135 74 283
88 392 38z"/>
<path d="M2923 3639 c-23 -11 -62 -42 -86 -68 -92 -99 -137 -235 -137 -415 0
-131 18 -223 59 -308 107 -224 304 -271 446 -106 81 95 125 240 125 410 0 182
-46 321 -135 417 -84 89 -182 115 -272 70z m171 -222 c13 -18 20 -43 20 -74
l1 -48 -100 0 -100 0 1 46 c0 56 24 96 67 114 39 16 81 2 111 -38z"/>
</g>
</svg>
